{"title":"Miele.[Honey].2013.DVDRip.XviD.AC3.HORiZON-ArtSubs","uid":9043300,"size":1824057344,"categoryP":"video","categoryS":"movies","magnet":"?xt=urn:btih:15b34db080ee31d3cc6ce5b1806ef5d9d37a614c&amp;dn=Miele.%5BHoney%5D.2013.DVDRip.XviD.AC3.HORiZON-ArtSubs&amp;tr=udp%3A%2F%2Ftracker.openbittorrent.com%3A80&amp;tr=udp%3A%2F%2Fopen.demonii.com%3A1337&amp;tr=udp%3A%2F%2Ftracker.coppersurfer.tk%3A6969&amp;tr=udp%3A%2F%2Fexodus.desync.com%3A6969","seeders":27,"leechers":1,"uploader":"lletaif","files":1,"time":1381690458,"description":"Title:\nMiele Aka Honey\n\nCountry:\nItaly, 2103\n\nLanguage:\nItalian\n\nNo subtitle\n\nIMDB: &lt;a href=&quot;\nhttp://www.imdb.com/title/tt2357461&quot; rel=&quot;nofollow&quot; target=&quot;_NEW&quot;&gt;\nhttp://www.imdb.com/title/tt2357461&lt;/a&gt;\n\nTrivia:\nOfficial Selection Cannes Film Festival 2013 - Un Certain Regard\n\n\n\nMedia Info:\n\nGeneral\nComplete name                            : Miele.[Honey].2013.DVDRip.XviD.AC3.HORiZON-ArtSubs\nFormat                                   : AVI\nFormat/Info                              : Audio Video Interleave\nFile size                                : 1.70 GiB\nDuration                                 : 1h 33mn\nOverall bit rate                         : 2 604 Kbps\nWriting application                      : FairUse Wizard - http://fairusewizard.com\nWriting library                          : The best and REALLY easy backup tool\n\nVideo\nID                                       : 0\nFormat                                   : MPEG-4 Visual\nFormat profile                           : Advanced Simple@L5\nFormat settings, BVOP                    : 1\nFormat settings, QPel                    : No\nFormat settings, GMC                     : No warppoints\nFormat settings, Matrix                  : Default (MPEG)\nMuxing mode                              : Packed bitstream\nCodec ID                                 : XVID\nCodec ID/Hint                            : XviD\nDuration                                 : 1h 33mn\nBit rate                                 : 2 146 Kbps\nWidth                                    : 688 pixels\nHeight                                   : 288 pixels\nDisplay aspect ratio                     : 2.40:1\nFrame rate                               : 25.000 fps\nColor space                              : YUV\nChroma subsampling                       : 4:2:0\nBit depth                                : 8 bits\nScan type                                : Progressive\nCompression mode                         : Lossy\nBits/(Pixel*Frame)                       : 0.433\nStream size                              : 1.40 GiB (82%)\nWriting library                          : XviD 1.2.0.dev47 (UTC 2006-11-01)\n\nAudio\nID                                       : 1\nFormat                                   : AC-3\nFormat/Info                              : Audio Coding 3\nMode extension                           : CM (complete main)\nFormat settings, Endianness              : Big\nCodec ID                                 : 2000\nDuration                                 : 1h 33mn\nBit rate mode                            : Constant\nBit rate                                 : 448 Kbps\nChannel count                            : 6 channels\nChannel positions                        : Front: L C R, Side: L R, LFE\nSampling rate                            : 48.0 KHz\nBit depth                                : 16 bits\nCompression mode                         : Lossy\nStream size                              : 299 MiB (17%)\nAlignment                                : Split accross interleaves","torrent":{"xt":"urn:btih:15b34db080ee31d3cc6ce5b1806ef5d9d37a614c","amp;dn":"Miele.%5BHoney%5D.2013.DVDRip.XviD.AC3.HORiZON-ArtSubs","amp;tr":["udp%3A%2F%2Ftracker.openbittorrent.com%3A80","udp%3A%2F%2Fopen.demonii.com%3A1337","udp%3A%2F%2Ftracker.coppersurfer.tk%3A6969","udp%3A%2F%2Fexodus.desync.com%3A6969"],"infoHash":"15b34db080ee31d3cc6ce5b1806ef5d9d37a614c","infoHashBuffer":{"type":"Buffer","data":[21,179,77,176,128,238,49,211,204,108,229,177,128,110,245,217,211,122,97,76]},"announce":[],"urlList":[]}}